<svg width="251" height="62" viewBox="0 0 251 62" fill="none" xmlns="http://www.w3.org/2000/svg">
<g filter="url(#filter0_d_69_46)">
<ellipse cx="233.113" cy="23.4649" rx="13.7645" ry="10.7779" fill="url(#paint0_linear_69_46)"/>
<path d="M233.113 34.6323C240.836 34.6323 247.267 29.7158 247.267 23.4649C247.267 17.2139 240.836 12.2975 233.113 12.2975C225.39 12.2975 218.959 17.2139 218.959 23.4649C218.959 29.7158 225.39 34.6323 233.113 34.6323Z" stroke="#58568B" stroke-width="0.779122"/>
<path d="M233.113 34.6323C240.836 34.6323 247.267 29.7158 247.267 23.4649C247.267 17.2139 240.836 12.2975 233.113 12.2975C225.39 12.2975 218.959 17.2139 218.959 23.4649C218.959 29.7158 225.39 34.6323 233.113 34.6323Z" stroke="black" stroke-opacity="0.2" stroke-width="0.779122"/>
</g>
<g filter="url(#filter1_d_69_46)">
<ellipse cx="234.411" cy="19.0498" rx="13.7645" ry="10.7779" fill="url(#paint1_linear_69_46)"/>
<path d="M234.411 30.2172C242.134 30.2172 248.566 25.3008 248.566 19.0498C248.566 12.7989 242.134 7.88241 234.411 7.88241C226.689 7.88241 220.257 12.7989 220.257 19.0498C220.257 25.3008 226.689 30.2172 234.411 30.2172Z" stroke="#58568B" stroke-width="0.779122"/>
<path d="M234.411 30.2172C242.134 30.2172 248.566 25.3008 248.566 19.0498C248.566 12.7989 242.134 7.88241 234.411 7.88241C226.689 7.88241 220.257 12.7989 220.257 19.0498C220.257 25.3008 226.689 30.2172 234.411 30.2172Z" stroke="black" stroke-opacity="0.2" stroke-width="0.779122"/>
</g>
<g filter="url(#filter2_d_69_46)">
<ellipse cx="236.229" cy="14.8945" rx="13.7645" ry="10.7779" fill="url(#paint2_linear_69_46)"/>
<path d="M236.229 26.062C243.952 26.062 250.383 21.1455 250.383 14.8945C250.383 8.6436 243.952 3.72714 236.229 3.72714C228.506 3.72714 222.075 8.6436 222.075 14.8945C222.075 21.1455 228.506 26.062 236.229 26.062Z" stroke="#58568B" stroke-width="0.779122"/>
<path d="M236.229 26.062C243.952 26.062 250.383 21.1455 250.383 14.8945C250.383 8.6436 243.952 3.72714 236.229 3.72714C228.506 3.72714 222.075 8.6436 222.075 14.8945C222.075 21.1455 228.506 26.062 236.229 26.062Z" stroke="black" stroke-opacity="0.2" stroke-width="0.779122"/>
</g>
<g filter="url(#filter3_d_69_46)">
<ellipse cx="233.113" cy="11.7779" rx="13.7645" ry="10.7779" fill="url(#paint3_linear_69_46)"/>
<path d="M233.113 22.9453C240.836 22.9453 247.267 18.0288 247.267 11.7779C247.267 5.5269 240.836 0.610439 233.113 0.610439C225.39 0.610439 218.959 5.5269 218.959 11.7779C218.959 18.0288 225.39 22.9453 233.113 22.9453Z" stroke="#58568B" stroke-width="0.779122"/>
<path d="M233.113 22.9453C240.836 22.9453 247.267 18.0288 247.267 11.7779C247.267 5.5269 240.836 0.610439 233.113 0.610439C225.39 0.610439 218.959 5.5269 218.959 11.7779C218.959 18.0288 225.39 22.9453 233.113 22.9453Z" stroke="black" stroke-opacity="0.2" stroke-width="0.779122"/>
</g>
<g filter="url(#filter4_d_69_46)">
<ellipse cx="22.5819" cy="24.4654" rx="13.7645" ry="10.7779" fill="url(#paint4_linear_69_46)"/>
<path d="M22.5819 35.6328C30.3048 35.6328 36.7359 30.7163 36.7359 24.4654C36.7359 18.2144 30.3048 13.2979 22.5819 13.2979C14.8589 13.2979 8.42782 18.2144 8.42782 24.4654C8.42782 30.7163 14.8589 35.6328 22.5819 35.6328Z" stroke="#58568B" stroke-width="0.779122"/>
<path d="M22.5819 35.6328C30.3048 35.6328 36.7359 30.7163 36.7359 24.4654C36.7359 18.2144 30.3048 13.2979 22.5819 13.2979C14.8589 13.2979 8.42782 18.2144 8.42782 24.4654C8.42782 30.7163 14.8589 35.6328 22.5819 35.6328Z" stroke="black" stroke-opacity="0.2" stroke-width="0.779122"/>
</g>
<g filter="url(#filter5_d_69_46)">
<ellipse cx="23.8809" cy="20.0498" rx="13.7645" ry="10.7779" fill="url(#paint5_linear_69_46)"/>
<path d="M23.8809 31.2172C31.6039 31.2172 38.035 26.3008 38.035 20.0498C38.035 13.7989 31.6039 8.88241 23.8809 8.88241C16.158 8.88241 9.72689 13.7989 9.72689 20.0498C9.72689 26.3008 16.158 31.2172 23.8809 31.2172Z" stroke="#58568B" stroke-width="0.779122"/>
<path d="M23.8809 31.2172C31.6039 31.2172 38.035 26.3008 38.035 20.0498C38.035 13.7989 31.6039 8.88241 23.8809 8.88241C16.158 8.88241 9.72689 13.7989 9.72689 20.0498C9.72689 26.3008 16.158 31.2172 23.8809 31.2172Z" stroke="black" stroke-opacity="0.2" stroke-width="0.779122"/>
</g>
<g filter="url(#filter6_d_69_46)">
<ellipse cx="25.6984" cy="15.8945" rx="13.7645" ry="10.7779" fill="url(#paint6_linear_69_46)"/>
<path d="M25.6984 27.062C33.4214 27.062 39.8525 22.1455 39.8525 15.8945C39.8525 9.6436 33.4214 4.72714 25.6984 4.72714C17.9755 4.72714 11.5444 9.6436 11.5444 15.8945C11.5444 22.1455 17.9755 27.062 25.6984 27.062Z" stroke="#58568B" stroke-width="0.779122"/>
<path d="M25.6984 27.062C33.4214 27.062 39.8525 22.1455 39.8525 15.8945C39.8525 9.6436 33.4214 4.72714 25.6984 4.72714C17.9755 4.72714 11.5444 9.6436 11.5444 15.8945C11.5444 22.1455 17.9755 27.062 25.6984 27.062Z" stroke="black" stroke-opacity="0.2" stroke-width="0.779122"/>
</g>
<g filter="url(#filter7_d_69_46)">
<ellipse cx="22.5816" cy="12.7779" rx="13.7645" ry="10.7779" fill="url(#paint7_linear_69_46)"/>
<path d="M22.5816 23.9453C30.3046 23.9453 36.7357 19.0288 36.7357 12.7779C36.7357 6.5269 30.3046 1.61044 22.5816 1.61044C14.8587 1.61044 8.42758 6.5269 8.42758 12.7779C8.42758 19.0288 14.8587 23.9453 22.5816 23.9453Z" stroke="#58568B" stroke-width="0.779122"/>
<path d="M22.5816 23.9453C30.3046 23.9453 36.7357 19.0288 36.7357 12.7779C36.7357 6.5269 30.3046 1.61044 22.5816 1.61044C14.8587 1.61044 8.42758 6.5269 8.42758 12.7779C8.42758 19.0288 14.8587 23.9453 22.5816 23.9453Z" stroke="black" stroke-opacity="0.2" stroke-width="0.779122"/>
</g>
<path d="M44 35.4248L49.248 26.3351L38.752 26.3351L44 35.4248ZM44.909 27.244L44.909 4.00023L43.091 4.00023L43.091 27.244L44.909 27.244Z" fill="url(#paint8_linear_69_46)"/>
<g filter="url(#filter8_d_69_46)">
<path d="M133.202 10.7798C133.202 15.6287 129.271 19.5595 124.423 19.5595C119.574 19.5595 115.643 15.6287 115.643 10.7798C115.643 5.93084 119.574 2 124.423 2C129.271 2 133.202 5.93084 133.202 10.7798Z" fill="url(#paint9_linear_69_46)"/>
<path d="M113.331 35.8918C110.75 35.8918 108.59 33.7542 109.345 31.2852C110.093 28.8379 111.432 26.5862 113.274 24.7437C116.231 21.787 120.241 20.126 124.423 20.126C128.604 20.126 132.614 21.787 135.571 24.7437C137.413 26.5862 138.753 28.8379 139.5 31.2851C140.255 33.7542 138.095 35.8918 135.514 35.8918H113.331Z" fill="url(#paint10_linear_69_46)"/>
<path d="M132.636 10.7798C132.636 15.3159 128.959 18.9931 124.423 18.9931C119.886 18.9931 116.209 15.3159 116.209 10.7798C116.209 6.24367 119.886 2.56644 124.423 2.56644C128.959 2.56644 132.636 6.24367 132.636 10.7798ZM109.886 31.4507C110.607 29.0913 111.899 26.9205 113.675 25.1442C116.525 22.2938 120.391 20.6924 124.423 20.6924C128.454 20.6924 132.32 22.2938 135.17 25.1442C136.946 26.9205 138.238 29.0913 138.959 31.4507C139.272 32.4749 138.987 33.4223 138.339 34.1328C137.683 34.853 136.652 35.3254 135.514 35.3254H113.331C112.193 35.3254 111.162 34.853 110.506 34.1328C109.858 33.4223 109.573 32.4749 109.886 31.4507Z" stroke="#58568B" stroke-width="1.13287"/>
<path d="M132.636 10.7798C132.636 15.3159 128.959 18.9931 124.423 18.9931C119.886 18.9931 116.209 15.3159 116.209 10.7798C116.209 6.24367 119.886 2.56644 124.423 2.56644C128.959 2.56644 132.636 6.24367 132.636 10.7798ZM109.886 31.4507C110.607 29.0913 111.899 26.9205 113.675 25.1442C116.525 22.2938 120.391 20.6924 124.423 20.6924C128.454 20.6924 132.32 22.2938 135.17 25.1442C136.946 26.9205 138.238 29.0913 138.959 31.4507C139.272 32.4749 138.987 33.4223 138.339 34.1328C137.683 34.853 136.652 35.3254 135.514 35.3254H113.331C112.193 35.3254 111.162 34.853 110.506 34.1328C109.858 33.4223 109.573 32.4749 109.886 31.4507Z" stroke="black" stroke-opacity="0.2" stroke-width="1.13287"/>
</g>
<path d="M5.94392 49.5962V48.6924H6.66071V45.0461H5.94392V44.1423H8.74876C9.08119 44.1423 9.36946 44.1995 9.61359 44.3137C9.8629 44.4228 10.0551 44.5812 10.1901 44.789C10.3304 44.9916 10.4005 45.2357 10.4005 45.5214V45.5993C10.4005 45.8486 10.3538 46.0538 10.2603 46.2148C10.1668 46.3706 10.0551 46.4927 9.92523 46.581C9.80057 46.6641 9.68111 46.7238 9.56684 46.7602V46.9004C9.68111 46.9316 9.80577 46.9913 9.94082 47.0796C10.0759 47.1627 10.1901 47.2848 10.2836 47.4458C10.3823 47.6068 10.4317 47.8172 10.4317 48.0769V48.1548C10.4317 48.4561 10.3615 48.7158 10.2213 48.9339C10.0811 49.1469 9.88628 49.3105 9.63696 49.4248C9.39283 49.5391 9.10716 49.5962 8.77993 49.5962H5.94392ZM7.68915 48.6612H8.65527C8.87861 48.6612 9.05781 48.6067 9.19286 48.4976C9.3331 48.3886 9.40322 48.2327 9.40322 48.0302V47.9522C9.40322 47.7497 9.3357 47.5938 9.20065 47.4848C9.0656 47.3757 8.88381 47.3212 8.65527 47.3212H7.68915V48.6612ZM7.68915 46.3862H8.63968C8.85264 46.3862 9.02665 46.3317 9.16169 46.2226C9.30194 46.1135 9.37206 45.9629 9.37206 45.7707V45.6928C9.37206 45.4954 9.30453 45.3448 9.16949 45.2409C9.03444 45.1318 8.85784 45.0773 8.63968 45.0773H7.68915V46.3862ZM12.5046 49.7053C12.2293 49.7053 11.9826 49.6585 11.7644 49.565C11.5463 49.4663 11.3723 49.3261 11.2424 49.1443C11.1178 48.9573 11.0554 48.7314 11.0554 48.4665C11.0554 48.2016 11.1178 47.9808 11.2424 47.8042C11.3723 47.6224 11.5489 47.4874 11.7722 47.3991C12.0008 47.3056 12.2605 47.2588 12.5514 47.2588H13.611V47.0407C13.611 46.8589 13.5538 46.7108 13.4396 46.5966C13.3253 46.4771 13.1435 46.4174 12.8942 46.4174C12.6501 46.4174 12.4683 46.4745 12.3488 46.5888C12.2293 46.6979 12.1514 46.8407 12.1151 47.0173L11.2113 46.7134C11.2736 46.5161 11.3723 46.3369 11.5073 46.1758C11.6476 46.0096 11.832 45.8772 12.0605 45.7785C12.2943 45.6746 12.5773 45.6227 12.9098 45.6227C13.4188 45.6227 13.8213 45.7499 14.1174 46.0044C14.4135 46.259 14.5615 46.6277 14.5615 47.1108V48.5522C14.5615 48.708 14.6342 48.7859 14.7796 48.7859H15.0913V49.5962H14.4368C14.2447 49.5962 14.0862 49.5494 13.9616 49.4559C13.8369 49.3625 13.7746 49.2378 13.7746 49.082V49.0742H13.6265C13.6058 49.1365 13.559 49.2196 13.4863 49.3235C13.4136 49.4222 13.2993 49.5105 13.1435 49.5884C12.9877 49.6663 12.7747 49.7053 12.5046 49.7053ZM12.676 48.9106C12.9513 48.9106 13.1747 48.8352 13.3461 48.6846C13.5227 48.5288 13.611 48.3236 13.611 48.0691V47.9912H12.6215C12.4397 47.9912 12.2968 48.0302 12.193 48.1081C12.0891 48.186 12.0371 48.2951 12.0371 48.4353C12.0371 48.5755 12.0917 48.6898 12.2008 48.7781C12.3098 48.8664 12.4683 48.9106 12.676 48.9106ZM17.3836 49.7053C16.8798 49.7053 16.4669 49.5962 16.1448 49.378C15.8228 49.1599 15.628 48.8482 15.5605 48.4431L16.4643 48.2094C16.5006 48.3911 16.5603 48.534 16.6435 48.6379C16.7318 48.7418 16.8382 48.8171 16.9629 48.8638C17.0927 48.9054 17.233 48.9261 17.3836 48.9261C17.6122 48.9261 17.781 48.8872 17.89 48.8093C17.9991 48.7262 18.0537 48.6249 18.0537 48.5054C18.0537 48.386 18.0017 48.2951 17.8978 48.2327C17.794 48.1652 17.6277 48.1107 17.3992 48.0691L17.181 48.0302C16.911 47.9782 16.6642 47.9081 16.4409 47.8198C16.2175 47.7263 16.0383 47.599 15.9033 47.438C15.7682 47.277 15.7007 47.0692 15.7007 46.8147C15.7007 46.4304 15.841 46.1369 16.1214 45.9343C16.4019 45.7266 16.7707 45.6227 17.2278 45.6227C17.6589 45.6227 18.0173 45.7188 18.303 45.9109C18.5887 46.1031 18.7757 46.355 18.864 46.6667L17.9524 46.9472C17.9108 46.7498 17.8251 46.6096 17.6953 46.5265C17.5706 46.4433 17.4148 46.4018 17.2278 46.4018C17.0408 46.4018 16.898 46.4356 16.7993 46.5031C16.7006 46.5654 16.6512 46.6537 16.6512 46.768C16.6512 46.8926 16.7032 46.9861 16.8071 47.0485C16.911 47.1056 17.0512 47.1497 17.2278 47.1809L17.4459 47.2199C17.7368 47.2718 17.9991 47.3419 18.2329 47.4302C18.4718 47.5133 18.6588 47.6354 18.7938 47.7964C18.9341 47.9522 19.0042 48.1652 19.0042 48.4353C19.0042 48.8404 18.8562 49.1547 18.5601 49.378C18.2692 49.5962 17.8771 49.7053 17.3836 49.7053ZM19.8645 49.5962V44.1423H20.8461V47.1575H20.9864L22.2641 45.7317H23.5419L21.7577 47.6016L23.6042 49.5962H22.3421L20.9864 48.0613H20.8461V49.5962H19.8645ZM25.7872 49.7053C25.4028 49.7053 25.0626 49.6248 24.7665 49.4637C24.4757 49.2975 24.2471 49.0664 24.0809 48.7703C23.9199 48.4691 23.8394 48.1159 23.8394 47.7107V47.6172C23.8394 47.2121 23.9199 46.8615 24.0809 46.5654C24.2419 46.2641 24.4679 46.033 24.7587 45.872C25.0496 45.7058 25.3872 45.6227 25.7716 45.6227C26.1508 45.6227 26.4806 45.7084 26.7611 45.8798C27.0416 46.046 27.2597 46.2797 27.4155 46.581C27.5714 46.8771 27.6493 47.2225 27.6493 47.6172V47.9522H24.8366C24.847 48.2171 24.9457 48.4327 25.1327 48.5989C25.3197 48.7651 25.5482 48.8482 25.8183 48.8482C26.0936 48.8482 26.2962 48.7885 26.4261 48.669C26.5559 48.5496 26.6546 48.4171 26.7221 48.2717L27.5246 48.6924C27.4519 48.8275 27.3454 48.9755 27.2052 49.1365C27.0701 49.2923 26.8883 49.4274 26.6598 49.5417C26.4313 49.6507 26.1404 49.7053 25.7872 49.7053ZM24.8444 47.2199H26.652C26.6312 46.9965 26.5403 46.8173 26.3793 46.6823C26.2235 46.5472 26.0183 46.4797 25.7638 46.4797C25.4989 46.4797 25.2885 46.5472 25.1327 46.6823C24.9769 46.8173 24.8808 46.9965 24.8444 47.2199ZM29.874 49.5962C29.6195 49.5962 29.4118 49.5183 29.2507 49.3625C29.0949 49.2014 29.017 48.9885 29.017 48.7236V46.542H28.0509V45.7317H29.017V44.5319H29.9987V45.7317H31.0583V46.542H29.9987V48.5522C29.9987 48.708 30.0714 48.7859 30.2169 48.7859H30.9648V49.5962H29.874ZM35.7639 49.7053C35.3795 49.7053 35.0341 49.6274 34.7277 49.4715C34.4212 49.3157 34.1797 49.0898 34.0031 48.7937C33.8265 48.4976 33.7382 48.1418 33.7382 47.7263V47.6016C33.7382 47.1861 33.8265 46.8303 34.0031 46.5342C34.1797 46.2382 34.4212 46.0122 34.7277 45.8564C35.0341 45.7006 35.3795 45.6227 35.7639 45.6227C36.1483 45.6227 36.4937 45.7006 36.8001 45.8564C37.1066 46.0122 37.3481 46.2382 37.5247 46.5342C37.7013 46.8303 37.7896 47.1861 37.7896 47.6016V47.7263C37.7896 48.1418 37.7013 48.4976 37.5247 48.7937C37.3481 49.0898 37.1066 49.3157 36.8001 49.4715C36.4937 49.6274 36.1483 49.7053 35.7639 49.7053ZM35.7639 48.8327C36.0652 48.8327 36.3145 48.7366 36.5119 48.5444C36.7092 48.347 36.8079 48.0665 36.8079 47.7029V47.625C36.8079 47.2614 36.7092 46.9835 36.5119 46.7914C36.3197 46.594 36.0704 46.4953 35.7639 46.4953C35.4626 46.4953 35.2133 46.594 35.0159 46.7914C34.8186 46.9835 34.7199 47.2614 34.7199 47.625V47.7029C34.7199 48.0665 34.8186 48.347 35.0159 48.5444C35.2133 48.7366 35.4626 48.8327 35.7639 48.8327ZM39.2053 49.5962V46.542H38.2236V45.7317H39.2053V45.015C39.2053 44.7501 39.2832 44.5397 39.439 44.3839C39.6001 44.2228 39.8078 44.1423 40.0623 44.1423H41.0752V44.9526H40.4051C40.2597 44.9526 40.187 45.0305 40.187 45.1864V45.7317H41.1999V46.542H40.187V49.5962H39.2053ZM1.84711 54.0333V54.5631H1.54325C1.30432 54.5631 1.18486 54.6825 1.18486 54.9215V55.1708H1.31731C1.52507 55.1708 1.69648 55.2331 1.83153 55.3578C1.97177 55.4824 2.04189 55.6408 2.04189 55.833C2.04189 56.0408 1.97177 56.2096 1.83153 56.3395C1.69648 56.4693 1.52507 56.5342 1.31731 56.5342C1.10435 56.5342 0.930344 56.4693 0.795296 56.3395C0.660249 56.2044 0.592725 56.0252 0.592725 55.8019V54.9059C0.592725 54.3241 0.883597 54.0333 1.46534 54.0333H1.84711ZM3.0777 56.5342V56.0044H3.38155C3.62049 56.0044 3.73995 55.885 3.73995 55.646V55.3967H3.6075C3.39973 55.3967 3.22573 55.3344 3.08549 55.2097C2.95044 55.0851 2.88292 54.9267 2.88292 54.7345C2.88292 54.5267 2.95044 54.3579 3.08549 54.228C3.22573 54.0982 3.39973 54.0333 3.6075 54.0333C3.82046 54.0333 3.99446 54.1008 4.12951 54.2358C4.26456 54.3657 4.33208 54.5423 4.33208 54.7656V55.6616C4.33208 56.2434 4.04121 56.5342 3.45947 56.5342H3.0777ZM7.15987 59.7053C6.73914 59.7053 6.36776 59.63 6.04572 59.4793C5.72369 59.3287 5.47177 59.1131 5.28998 58.8327C5.10818 58.5522 5.01728 58.2145 5.01728 57.8198V57.6016H6.03014V57.8198C6.03014 58.147 6.13143 58.3937 6.334 58.56C6.53657 58.721 6.81186 58.8015 7.15987 58.8015C7.51307 58.8015 7.77538 58.7314 7.94678 58.5911C8.12338 58.4509 8.21168 58.2717 8.21168 58.0535C8.21168 57.9029 8.16753 57.7808 8.07923 57.6873C7.99613 57.5938 7.87147 57.5185 7.70525 57.4614C7.54424 57.3991 7.34686 57.3419 7.11312 57.29L6.93392 57.251C6.55995 57.1679 6.23791 57.064 5.96781 56.9394C5.70291 56.8095 5.49774 56.6407 5.35231 56.433C5.21206 56.2252 5.14194 55.9551 5.14194 55.6227C5.14194 55.2902 5.21986 55.0072 5.37568 54.7734C5.5367 54.5345 5.76005 54.3527 6.04572 54.228C6.3366 54.0982 6.67681 54.0333 7.06637 54.0333C7.45594 54.0333 7.80135 54.1008 8.10261 54.2358C8.40906 54.3657 8.64799 54.5631 8.8194 54.828C8.996 55.0877 9.0843 55.4149 9.0843 55.8097V56.0434H8.07144V55.8097C8.07144 55.6019 8.02989 55.4357 7.94678 55.311C7.86887 55.1812 7.7546 55.0877 7.60397 55.0305C7.45334 54.9682 7.27414 54.937 7.06637 54.937C6.75473 54.937 6.52359 54.9968 6.37296 55.1162C6.22752 55.2305 6.1548 55.3889 6.1548 55.5915C6.1548 55.7266 6.18856 55.8408 6.25609 55.9343C6.32881 56.0278 6.43529 56.1057 6.57553 56.1681C6.71577 56.2304 6.89497 56.2849 7.11312 56.3317L7.29232 56.3706C7.68188 56.4537 8.0195 56.5602 8.30518 56.6901C8.59605 56.8199 8.822 56.9913 8.98301 57.2043C9.14403 57.4172 9.22454 57.6899 9.22454 58.0224C9.22454 58.3548 9.13884 58.6483 8.96743 58.9028C8.80122 59.1521 8.56229 59.3495 8.25064 59.4949C7.94419 59.6351 7.58059 59.7053 7.15987 59.7053ZM10.0227 59.5962V54.1423H11.0044V56.207H11.1447C11.1862 56.1239 11.2511 56.0408 11.3394 55.9577C11.4277 55.8746 11.5446 55.8071 11.69 55.7551C11.8407 55.698 12.0303 55.6694 12.2588 55.6694C12.5601 55.6694 12.8224 55.7395 13.0457 55.8798C13.2743 56.0148 13.4509 56.2044 13.5755 56.4485C13.7002 56.6875 13.7625 56.968 13.7625 57.29V59.5962H12.7808V57.3679C12.7808 57.077 12.7081 56.8589 12.5627 56.7134C12.4224 56.568 12.2198 56.4953 11.9549 56.4953C11.6537 56.4953 11.4199 56.5966 11.2537 56.7991C11.0875 56.9965 11.0044 57.2744 11.0044 57.6328V59.5962H10.0227ZM14.8237 59.5962V55.7317H15.8054V59.5962H14.8237ZM15.3146 55.2799C15.138 55.2799 14.9874 55.2227 14.8627 55.1084C14.7432 54.9942 14.6835 54.8435 14.6835 54.6566C14.6835 54.4696 14.7432 54.3189 14.8627 54.2047C14.9874 54.0904 15.138 54.0333 15.3146 54.0333C15.4964 54.0333 15.647 54.0904 15.7665 54.2047C15.886 54.3189 15.9457 54.4696 15.9457 54.6566C15.9457 54.8435 15.886 54.9942 15.7665 55.1084C15.647 55.2227 15.4964 55.2799 15.3146 55.2799ZM18.3736 59.5962C18.1191 59.5962 17.9113 59.5183 17.7503 59.3625C17.5945 59.2014 17.5166 58.9885 17.5166 58.7236V56.542H16.5505V55.7317H17.5166V54.5319H18.4983V55.7317H19.5579V56.542H18.4983V58.5522C18.4983 58.708 18.571 58.7859 18.7164 58.7859H19.4644V59.5962H18.3736ZM20.5927 56.5342V56.0044H20.8966C21.1355 56.0044 21.255 55.885 21.255 55.646V55.3967H21.1225C20.9148 55.3967 20.7408 55.3344 20.6005 55.2097C20.4655 55.0851 20.3979 54.9267 20.3979 54.7345C20.3979 54.5267 20.4655 54.3579 20.6005 54.228C20.7408 54.0982 20.9148 54.0333 21.1225 54.0333C21.3355 54.0333 21.5095 54.1008 21.6445 54.2358C21.7796 54.3657 21.8471 54.5423 21.8471 54.7656V55.6616C21.8471 56.2434 21.5562 56.5342 20.9745 56.5342H20.5927ZM22.8829 56.5342V56.0044H23.1868C23.4257 56.0044 23.5452 55.885 23.5452 55.646V55.3967H23.4127C23.2049 55.3967 23.0309 55.3344 22.8907 55.2097C22.7557 55.0851 22.6881 54.9267 22.6881 54.7345C22.6881 54.5267 22.7557 54.3579 22.8907 54.228C23.0309 54.0982 23.2049 54.0333 23.4127 54.0333C23.6257 54.0333 23.7997 54.1008 23.9347 54.2358C24.0698 54.3657 24.1373 54.5423 24.1373 54.7656V55.6616C24.1373 56.2434 23.8464 56.5342 23.2647 56.5342H22.8829ZM28.8966 59.7053C28.5226 59.7053 28.1824 59.6274 27.8759 59.4715C27.5747 59.3157 27.3357 59.0898 27.1591 58.7937C26.9825 58.4976 26.8942 58.1392 26.8942 57.7185V57.6094C26.8942 57.1887 26.9825 56.8303 27.1591 56.5342C27.3357 56.2382 27.5747 56.0122 27.8759 55.8564C28.1824 55.7006 28.5226 55.6227 28.8966 55.6227C29.2654 55.6227 29.5822 55.6876 29.8471 55.8175C30.112 55.9473 30.325 56.1265 30.486 56.355C30.6522 56.5784 30.7613 56.8329 30.8132 57.1186L29.8627 57.3212C29.8419 57.1653 29.7952 57.0251 29.7224 56.9004C29.6497 56.7758 29.5458 56.6771 29.4108 56.6044C29.2809 56.5316 29.1173 56.4953 28.9199 56.4953C28.7226 56.4953 28.5434 56.5394 28.3824 56.6277C28.2265 56.7108 28.1019 56.8381 28.0084 57.0095C27.9201 57.1757 27.8759 57.3809 27.8759 57.625V57.7029C27.8759 57.9471 27.9201 58.1548 28.0084 58.3262C28.1019 58.4924 28.2265 58.6197 28.3824 58.708C28.5434 58.7911 28.7226 58.8327 28.9199 58.8327C29.216 58.8327 29.4394 58.7573 29.59 58.6067C29.7458 58.4509 29.8445 58.2483 29.8861 57.999L30.8366 58.2249C30.7691 58.5002 30.6522 58.7521 30.486 58.9807C30.325 59.204 30.112 59.3806 29.8471 59.5105C29.5822 59.6403 29.2654 59.7053 28.8966 59.7053ZM33.4851 59.7053C33.1007 59.7053 32.7553 59.6274 32.4489 59.4715C32.1424 59.3157 31.9009 59.0898 31.7243 58.7937C31.5477 58.4976 31.4594 58.1418 31.4594 57.7263V57.6016C31.4594 57.1861 31.5477 56.8303 31.7243 56.5342C31.9009 56.2382 32.1424 56.0122 32.4489 55.8564C32.7553 55.7006 33.1007 55.6227 33.4851 55.6227C33.8695 55.6227 34.2149 55.7006 34.5213 55.8564C34.8278 56.0122 35.0693 56.2382 35.2459 56.5342C35.4225 56.8303 35.5108 57.1861 35.5108 57.6016V57.7263C35.5108 58.1418 35.4225 58.4976 35.2459 58.7937C35.0693 59.0898 34.8278 59.3157 34.5213 59.4715C34.2149 59.6274 33.8695 59.7053 33.4851 59.7053ZM33.4851 58.8327C33.7864 58.8327 34.0357 58.7366 34.2331 58.5444C34.4304 58.347 34.5291 58.0665 34.5291 57.7029V57.625C34.5291 57.2614 34.4304 56.9835 34.2331 56.7914C34.0409 56.594 33.7916 56.4953 33.4851 56.4953C33.1839 56.4953 32.9345 56.594 32.7372 56.7914C32.5398 56.9835 32.4411 57.2614 32.4411 57.625V57.7029C32.4411 58.0665 32.5398 58.347 32.7372 58.5444C32.9345 58.7366 33.1839 58.8327 33.4851 58.8327ZM36.417 59.5962V55.7317H37.3987V59.5962H36.417ZM36.9078 55.2799C36.7312 55.2799 36.5806 55.2227 36.4559 55.1084C36.3365 54.9942 36.2767 54.8435 36.2767 54.6566C36.2767 54.4696 36.3365 54.3189 36.4559 54.2047C36.5806 54.0904 36.7312 54.0333 36.9078 54.0333C37.0896 54.0333 37.2403 54.0904 37.3597 54.2047C37.4792 54.3189 37.5389 54.4696 37.5389 54.6566C37.5389 54.8435 37.4792 54.9942 37.3597 55.1084C37.2403 55.2227 37.0896 55.2799 36.9078 55.2799ZM38.4865 59.5962V55.7317H39.4526V56.2382H39.5929C39.6552 56.1031 39.7721 55.9759 39.9435 55.8564C40.1149 55.7317 40.3746 55.6694 40.7226 55.6694C41.0239 55.6694 41.2862 55.7395 41.5095 55.8798C41.7381 56.0148 41.9147 56.2044 42.0393 56.4485C42.164 56.6875 42.2263 56.968 42.2263 57.29V59.5962H41.2446V57.3679C41.2446 57.077 41.1719 56.8589 41.0265 56.7134C40.8862 56.568 40.6837 56.4953 40.4188 56.4953C40.1175 56.4953 39.8838 56.5966 39.7175 56.7991C39.5513 56.9965 39.4682 57.2744 39.4682 57.6328V59.5962H38.4865ZM44.8926 59.7053C44.3887 59.7053 43.9758 59.5962 43.6538 59.378C43.3317 59.1599 43.1369 58.8482 43.0694 58.4431L43.9732 58.2094C44.0096 58.3911 44.0693 58.534 44.1524 58.6379C44.2407 58.7418 44.3472 58.8171 44.4718 58.8638C44.6017 58.9054 44.7419 58.9261 44.8926 58.9261C45.1211 58.9261 45.2899 58.8872 45.399 58.8093C45.5081 58.7262 45.5626 58.6249 45.5626 58.5054C45.5626 58.386 45.5107 58.2951 45.4068 58.2327C45.3029 58.1652 45.1367 58.1107 44.9081 58.0691L44.69 58.0302C44.4199 57.9782 44.1732 57.9081 43.9498 57.8198C43.7265 57.7263 43.5473 57.599 43.4122 57.438C43.2772 57.277 43.2097 57.0692 43.2097 56.8147C43.2097 56.4304 43.3499 56.1369 43.6304 55.9343C43.9109 55.7266 44.2796 55.6227 44.7367 55.6227C45.1678 55.6227 45.5262 55.7188 45.8119 55.9109C46.0976 56.1031 46.2846 56.355 46.3729 56.6667L45.4613 56.9472C45.4198 56.7498 45.3341 56.6096 45.2042 56.5265C45.0795 56.4433 44.9237 56.4018 44.7367 56.4018C44.5497 56.4018 44.4069 56.4356 44.3082 56.5031C44.2095 56.5654 44.1602 56.6537 44.1602 56.768C44.1602 56.8926 44.2121 56.9861 44.316 57.0485C44.4199 57.1056 44.5601 57.1497 44.7367 57.1809L44.9549 57.2199C45.2458 57.2718 45.5081 57.3419 45.7418 57.4302C45.9807 57.5133 46.1677 57.6354 46.3028 57.7964C46.443 57.9522 46.5131 58.1652 46.5131 58.4353C46.5131 58.8404 46.3651 59.1547 46.069 59.378C45.7782 59.5962 45.386 59.7053 44.8926 59.7053Z" fill="white"/>
<path d="M108.829 50V44.5461H111.072C111.415 44.5461 111.716 44.6163 111.976 44.7565C112.241 44.8916 112.446 45.0837 112.592 45.3331C112.742 45.5824 112.818 45.8784 112.818 46.2213V46.3303C112.818 46.668 112.74 46.964 112.584 47.2185C112.433 47.4679 112.226 47.6626 111.961 47.8029C111.701 47.9379 111.405 48.0054 111.072 48.0054H109.857V50H108.829ZM109.857 47.0705H110.971C111.215 47.0705 111.413 47.003 111.563 46.8679C111.714 46.7329 111.789 46.5485 111.789 46.3148V46.2368C111.789 46.0031 111.714 45.8187 111.563 45.6837C111.413 45.5486 111.215 45.4811 110.971 45.4811H109.857V47.0705ZM113.562 50V46.1356H114.528V46.5719H114.668C114.725 46.416 114.819 46.3018 114.949 46.2291C115.084 46.1563 115.24 46.12 115.416 46.12H115.884V46.9926H115.401C115.151 46.9926 114.946 47.0601 114.785 47.1952C114.624 47.325 114.544 47.5276 114.544 47.8029V50H113.562ZM118.353 50.1091C117.968 50.1091 117.623 50.0312 117.316 49.8753C117.01 49.7195 116.768 49.4936 116.592 49.1975C116.415 48.9014 116.327 48.5456 116.327 48.1301V48.0054C116.327 47.5899 116.415 47.2341 116.592 46.9381C116.768 46.642 117.01 46.416 117.316 46.2602C117.623 46.1044 117.968 46.0265 118.353 46.0265C118.737 46.0265 119.082 46.1044 119.389 46.2602C119.695 46.416 119.937 46.642 120.114 46.9381C120.29 47.2341 120.378 47.5899 120.378 48.0054V48.1301C120.378 48.5456 120.29 48.9014 120.114 49.1975C119.937 49.4936 119.695 49.7195 119.389 49.8753C119.082 50.0312 118.737 50.1091 118.353 50.1091ZM118.353 49.2365C118.654 49.2365 118.903 49.1404 119.101 48.9482C119.298 48.7508 119.397 48.4703 119.397 48.1067V48.0288C119.397 47.6652 119.298 47.3873 119.101 47.1952C118.908 46.9978 118.659 46.8991 118.353 46.8991C118.051 46.8991 117.802 46.9978 117.605 47.1952C117.407 47.3873 117.309 47.6652 117.309 48.0288V48.1067C117.309 48.4703 117.407 48.7508 117.605 48.9482C117.802 49.1404 118.051 49.2365 118.353 49.2365ZM120.568 51.5582V50.7168H121.082C121.227 50.7168 121.3 50.6389 121.3 50.4831V46.1356H122.282V50.6856C122.282 50.9505 122.204 51.1609 122.048 51.3167C121.892 51.4777 121.685 51.5582 121.425 51.5582H120.568ZM121.791 45.6837C121.614 45.6837 121.464 45.6265 121.339 45.5123C121.22 45.398 121.16 45.2474 121.16 45.0604C121.16 44.8734 121.22 44.7227 121.339 44.6085C121.464 44.4942 121.614 44.4371 121.791 44.4371C121.973 44.4371 122.123 44.4942 122.243 44.6085C122.362 44.7227 122.422 44.8734 122.422 45.0604C122.422 45.2474 122.362 45.398 122.243 45.5123C122.123 45.6265 121.973 45.6837 121.791 45.6837ZM125.13 50.1091C124.746 50.1091 124.406 50.0286 124.109 49.8675C123.819 49.7013 123.59 49.4702 123.424 49.1741C123.263 48.8729 123.182 48.5197 123.182 48.1145V48.021C123.182 47.6159 123.263 47.2653 123.424 46.9692C123.585 46.668 123.811 46.4368 124.102 46.2758C124.393 46.1096 124.73 46.0265 125.115 46.0265C125.494 46.0265 125.824 46.1122 126.104 46.2836C126.385 46.4498 126.603 46.6835 126.759 46.9848C126.914 47.2809 126.992 47.6263 126.992 48.021V48.3561H124.18C124.19 48.621 124.289 48.8365 124.476 49.0027C124.663 49.1689 124.891 49.252 125.161 49.252C125.437 49.252 125.639 49.1923 125.769 49.0728C125.899 48.9534 125.998 48.8209 126.065 48.6755L126.868 49.0962C126.795 49.2313 126.688 49.3793 126.548 49.5403C126.413 49.6961 126.231 49.8312 126.003 49.9455C125.774 50.0545 125.483 50.1091 125.13 50.1091ZM124.187 47.6237H125.995C125.974 47.4003 125.883 47.2211 125.722 47.0861C125.566 46.951 125.361 46.8835 125.107 46.8835C124.842 46.8835 124.632 46.951 124.476 47.0861C124.32 47.2211 124.224 47.4003 124.187 47.6237ZM129.681 50.1091C129.307 50.1091 128.967 50.0312 128.661 49.8753C128.359 49.7195 128.121 49.4936 127.944 49.1975C127.767 48.9014 127.679 48.543 127.679 48.1223V48.0132C127.679 47.5925 127.767 47.2341 127.944 46.9381C128.121 46.642 128.359 46.416 128.661 46.2602C128.967 46.1044 129.307 46.0265 129.681 46.0265C130.05 46.0265 130.367 46.0914 130.632 46.2213C130.897 46.3511 131.11 46.5303 131.271 46.7589C131.437 46.9822 131.546 47.2367 131.598 47.5224L130.647 47.725C130.627 47.5691 130.58 47.4289 130.507 47.3042C130.435 47.1796 130.331 47.0809 130.196 47.0082C130.066 46.9355 129.902 46.8991 129.705 46.8991C129.507 46.8991 129.328 46.9432 129.167 47.0315C129.011 47.1147 128.887 47.2419 128.793 47.4133C128.705 47.5795 128.661 47.7847 128.661 48.0288V48.1067C128.661 48.3509 128.705 48.5586 128.793 48.73C128.887 48.8962 129.011 49.0235 129.167 49.1118C129.328 49.1949 129.507 49.2365 129.705 49.2365C130.001 49.2365 130.224 49.1611 130.375 49.0105C130.531 48.8547 130.629 48.6521 130.671 48.4028L131.621 48.6287C131.554 48.904 131.437 49.156 131.271 49.3845C131.11 49.6078 130.897 49.7844 130.632 49.9143C130.367 50.0442 130.05 50.1091 129.681 50.1091ZM133.782 50C133.528 50 133.32 49.9221 133.159 49.7663C133.003 49.6052 132.925 49.3923 132.925 49.1274V46.9458H131.959V46.1356H132.925V44.9357H133.907V46.1356H134.966V46.9458H133.907V48.956C133.907 49.1118 133.98 49.1897 134.125 49.1897H134.873V50H133.782ZM136.001 46.9381V46.4082H136.305C136.544 46.4082 136.664 46.2888 136.664 46.0499V45.8005H136.531C136.323 45.8005 136.149 45.7382 136.009 45.6135C135.874 45.4889 135.806 45.3305 135.806 45.1383C135.806 44.9305 135.874 44.7617 136.009 44.6319C136.149 44.502 136.323 44.4371 136.531 44.4371C136.744 44.4371 136.918 44.5046 137.053 44.6396C137.188 44.7695 137.256 44.9461 137.256 45.1694V46.0654C137.256 46.6472 136.965 46.9381 136.383 46.9381H136.001ZM139.75 50.1091C139.246 50.1091 138.833 50 138.511 49.7818C138.189 49.5637 137.995 49.252 137.927 48.8469L138.831 48.6132C138.867 48.795 138.927 48.9378 139.01 49.0417C139.098 49.1456 139.205 49.2209 139.33 49.2676C139.459 49.3092 139.6 49.33 139.75 49.33C139.979 49.33 140.148 49.291 140.257 49.2131C140.366 49.13 140.42 49.0287 140.42 48.9092C140.42 48.7898 140.368 48.6989 140.264 48.6365C140.161 48.569 139.994 48.5145 139.766 48.4729L139.548 48.434C139.278 48.382 139.031 48.3119 138.807 48.2236C138.584 48.1301 138.405 48.0029 138.27 47.8418C138.135 47.6808 138.067 47.473 138.067 47.2185C138.067 46.8342 138.208 46.5407 138.488 46.3381C138.769 46.1304 139.137 46.0265 139.594 46.0265C140.026 46.0265 140.384 46.1226 140.67 46.3148C140.955 46.5069 141.142 46.7589 141.231 47.0705L140.319 47.351C140.277 47.1536 140.192 47.0134 140.062 46.9303C139.937 46.8472 139.781 46.8056 139.594 46.8056C139.407 46.8056 139.265 46.8394 139.166 46.9069C139.067 46.9692 139.018 47.0575 139.018 47.1718C139.018 47.2964 139.07 47.3899 139.174 47.4523C139.278 47.5094 139.418 47.5536 139.594 47.5847L139.813 47.6237C140.103 47.6756 140.366 47.7457 140.599 47.834C140.838 47.9171 141.025 48.0392 141.16 48.2002C141.301 48.3561 141.371 48.569 141.371 48.8391C141.371 49.2443 141.223 49.5585 140.927 49.7818C140.636 50 140.244 50.1091 139.75 50.1091ZM112.433 60V58.8936H109.753V57.7405L111.639 54.5461H113.431V58.0054H114.335V58.8936H113.431V60H112.433ZM110.704 58.0054H112.433V55.185H112.293L110.704 57.8808V58.0054ZM117.028 60.1091C116.384 60.1091 115.867 59.9325 115.478 59.5793C115.088 59.2209 114.893 58.6807 114.893 57.9587V56.5874C114.893 55.8862 115.088 55.3538 115.478 54.9902C115.867 54.6215 116.384 54.4371 117.028 54.4371C117.678 54.4371 118.194 54.6215 118.579 54.9902C118.968 55.3538 119.163 55.8862 119.163 56.5874V57.9587C119.163 58.6807 118.968 59.2209 118.579 59.5793C118.194 59.9325 117.678 60.1091 117.028 60.1091ZM117.028 59.2209C117.418 59.2209 117.704 59.1144 117.885 58.9014C118.072 58.6885 118.166 58.3846 118.166 57.9899V56.5407C118.166 56.1407 118.062 55.8395 117.854 55.6369C117.652 55.4292 117.376 55.3253 117.028 55.3253C116.67 55.3253 116.389 55.4317 116.187 55.6447C115.989 55.8577 115.891 56.1563 115.891 56.5407V57.9899C115.891 58.4002 115.984 58.7093 116.171 58.917C116.363 59.1196 116.649 59.2209 117.028 59.2209ZM122.439 60V58.8936H119.759V57.7405L121.644 54.5461H123.436V58.0054H124.34V58.8936H123.436V60H122.439ZM120.709 58.0054H122.439V55.185H122.299L120.709 57.8808V58.0054ZM127.002 60V54.5461H128.957L130.04 59.2988H130.181V54.5461H131.193V60H129.238L128.155 55.2474H128.015V60H127.002ZM132.221 60V54.5461H135.649V55.4811H133.25V56.7978H135.462V57.7328H133.25V60H132.221ZM137.645 60V55.4811H136.056V54.5461H140.263V55.4811H138.674V60H137.645Z" fill="white"/>
<path d="M223.691 49.8312C223.271 49.8312 222.899 49.7559 222.577 49.6053C222.255 49.4547 222.003 49.2391 221.821 48.9586C221.64 48.6781 221.549 48.3405 221.549 47.9458V47.7276H222.562V47.9458C222.562 48.273 222.663 48.5197 222.865 48.6859C223.068 48.847 223.343 48.9275 223.691 48.9275C224.045 48.9275 224.307 48.8573 224.478 48.7171C224.655 48.5769 224.743 48.3977 224.743 48.1795C224.743 48.0289 224.699 47.9068 224.611 47.8133C224.528 47.7198 224.403 47.6445 224.237 47.5874C224.076 47.525 223.878 47.4679 223.645 47.416L223.465 47.377C223.091 47.2939 222.769 47.19 222.499 47.0654C222.234 46.9355 222.029 46.7667 221.884 46.5589C221.744 46.3512 221.673 46.0811 221.673 45.7486C221.673 45.4162 221.751 45.1331 221.907 44.8994C222.068 44.6605 222.291 44.4787 222.577 44.354C222.868 44.2242 223.208 44.1592 223.598 44.1592C223.987 44.1592 224.333 44.2268 224.634 44.3618C224.941 44.4917 225.179 44.689 225.351 44.9539C225.527 45.2136 225.616 45.5409 225.616 45.9356V46.1694H224.603V45.9356C224.603 45.7279 224.561 45.5617 224.478 45.437C224.4 45.3071 224.286 45.2136 224.135 45.1565C223.985 45.0942 223.806 45.063 223.598 45.063C223.286 45.063 223.055 45.1228 222.904 45.2422C222.759 45.3565 222.686 45.5149 222.686 45.7175C222.686 45.8525 222.72 45.9668 222.788 46.0603C222.86 46.1538 222.967 46.2317 223.107 46.294C223.247 46.3564 223.426 46.4109 223.645 46.4576L223.824 46.4966C224.213 46.5797 224.551 46.6862 224.837 46.816C225.127 46.9459 225.353 47.1173 225.514 47.3303C225.675 47.5432 225.756 47.8159 225.756 48.1483C225.756 48.4808 225.67 48.7742 225.499 49.0287C225.333 49.2781 225.094 49.4754 224.782 49.6209C224.476 49.7611 224.112 49.8312 223.691 49.8312ZM228.034 49.7222C227.78 49.7222 227.572 49.6443 227.411 49.4884C227.255 49.3274 227.177 49.1145 227.177 48.8496V46.668H226.211V45.8577H227.177V44.6579H228.159V45.8577H229.219V46.668H228.159V48.6781C228.159 48.834 228.232 48.9119 228.377 48.9119H229.125V49.7222H228.034ZM231.307 49.8312C231.032 49.8312 230.785 49.7845 230.567 49.691C230.349 49.5923 230.175 49.4521 230.045 49.2703C229.92 49.0833 229.858 48.8573 229.858 48.5924C229.858 48.3275 229.92 48.1068 230.045 47.9302C230.175 47.7484 230.352 47.6133 230.575 47.525C230.803 47.4315 231.063 47.3848 231.354 47.3848H232.414V47.1666C232.414 46.9849 232.356 46.8368 232.242 46.7225C232.128 46.6031 231.946 46.5434 231.697 46.5434C231.453 46.5434 231.271 46.6005 231.151 46.7148C231.032 46.8238 230.954 46.9667 230.918 47.1433L230.014 46.8394C230.076 46.642 230.175 46.4628 230.31 46.3018C230.45 46.1356 230.635 46.0032 230.863 45.9045C231.097 45.8006 231.38 45.7486 231.712 45.7486C232.221 45.7486 232.624 45.8759 232.92 46.1304C233.216 46.3849 233.364 46.7537 233.364 47.2368V48.6781C233.364 48.834 233.437 48.9119 233.582 48.9119H233.894V49.7222H233.239C233.047 49.7222 232.889 49.6754 232.764 49.5819C232.64 49.4884 232.577 49.3638 232.577 49.2079V49.2002H232.429C232.408 49.2625 232.362 49.3456 232.289 49.4495C232.216 49.5482 232.102 49.6365 231.946 49.7144C231.79 49.7923 231.577 49.8312 231.307 49.8312ZM231.479 49.0365C231.754 49.0365 231.977 48.9612 232.149 48.8106C232.325 48.6548 232.414 48.4496 232.414 48.1951V48.1172H231.424C231.242 48.1172 231.099 48.1561 230.996 48.234C230.892 48.312 230.84 48.421 230.84 48.5613C230.84 48.7015 230.894 48.8158 231.003 48.9041C231.112 48.9924 231.271 49.0365 231.479 49.0365ZM236.933 49.8312C236.585 49.8312 236.318 49.7715 236.131 49.652C235.944 49.5326 235.806 49.4001 235.718 49.2547H235.578V49.7222H234.612V44.2683H235.593V46.3018H235.734C235.791 46.2083 235.866 46.12 235.96 46.0369C236.058 45.9538 236.185 45.8863 236.341 45.8344C236.502 45.7772 236.7 45.7486 236.933 45.7486C237.245 45.7486 237.533 45.8266 237.798 45.9824C238.063 46.133 238.276 46.3564 238.437 46.6524C238.598 46.9485 238.679 47.3069 238.679 47.7276V47.8523C238.679 48.273 238.598 48.6314 238.437 48.9275C238.276 49.2235 238.063 49.4495 237.798 49.6053C237.533 49.7559 237.245 49.8312 236.933 49.8312ZM236.637 48.9742C236.939 48.9742 237.191 48.8781 237.393 48.6859C237.596 48.4886 237.697 48.2029 237.697 47.8289V47.751C237.697 47.377 237.596 47.0939 237.393 46.9017C237.196 46.7044 236.944 46.6057 236.637 46.6057C236.336 46.6057 236.084 46.7044 235.882 46.9017C235.679 47.0939 235.578 47.377 235.578 47.751V47.8289C235.578 48.2029 235.679 48.4886 235.882 48.6859C236.084 48.8781 236.336 48.9742 236.637 48.9742ZM239.58 49.7222V44.2683H240.562V49.7222H239.58ZM243.41 49.8312C243.026 49.8312 242.686 49.7507 242.39 49.5897C242.099 49.4235 241.87 49.1924 241.704 48.8963C241.543 48.595 241.463 48.2418 241.463 47.8367V47.7432C241.463 47.3381 241.543 46.9875 241.704 46.6914C241.865 46.3901 242.091 46.159 242.382 45.998C242.673 45.8318 243.011 45.7486 243.395 45.7486C243.774 45.7486 244.104 45.8343 244.384 46.0058C244.665 46.172 244.883 46.4057 245.039 46.707C245.195 47.003 245.273 47.3484 245.273 47.7432V48.0782H242.46C242.47 48.3431 242.569 48.5587 242.756 48.7249C242.943 48.8911 243.172 48.9742 243.442 48.9742C243.717 48.9742 243.919 48.9145 244.049 48.795C244.179 48.6755 244.278 48.5431 244.345 48.3977L245.148 48.8184C245.075 48.9534 244.969 49.1015 244.828 49.2625C244.693 49.4183 244.512 49.5534 244.283 49.6676C244.055 49.7767 243.764 49.8312 243.41 49.8312ZM242.468 47.3458H244.275C244.255 47.1225 244.164 46.9433 244.003 46.8083C243.847 46.6732 243.642 46.6057 243.387 46.6057C243.122 46.6057 242.912 46.6732 242.756 46.8083C242.6 46.9433 242.504 47.1225 242.468 47.3458ZM218.769 59.8312C218.094 59.8312 217.559 59.6443 217.164 59.2703C216.769 58.8911 216.572 58.3509 216.572 57.6497V56.3408C216.572 55.6396 216.769 55.102 217.164 54.728C217.559 54.3488 218.094 54.1592 218.769 54.1592C219.439 54.1592 219.956 54.3436 220.319 54.7124C220.688 55.076 220.873 55.5772 220.873 56.2161V56.2629H219.86V56.185C219.86 55.8629 219.769 55.598 219.587 55.3903C219.41 55.1825 219.138 55.0786 218.769 55.0786C218.405 55.0786 218.12 55.1903 217.912 55.4136C217.704 55.637 217.6 55.9408 217.6 56.3252V57.6653C217.6 58.0445 217.704 58.3483 217.912 58.5769C218.12 58.8002 218.405 58.9119 218.769 58.9119C219.138 58.9119 219.41 58.808 219.587 58.6002C219.769 58.3873 219.86 58.1224 219.86 57.8055V57.6653H220.873V57.7744C220.873 58.4132 220.688 58.9171 220.319 59.2859C219.956 59.6494 219.439 59.8312 218.769 59.8312ZM223.214 59.7845C222.913 59.7845 222.648 59.717 222.42 59.5819C222.196 59.4417 222.022 59.2495 221.898 59.0054C221.773 58.7613 221.711 58.4808 221.711 58.1639V55.8577H222.692V58.086C222.692 58.3769 222.762 58.595 222.903 58.7405C223.048 58.8859 223.253 58.9586 223.518 58.9586C223.819 58.9586 224.053 58.8599 224.219 58.6626C224.386 58.46 224.469 58.1795 224.469 57.8211V55.8577H225.45V59.7222H224.484V59.2157H224.344C224.282 59.3456 224.165 59.4728 223.993 59.5975C223.822 59.7222 223.562 59.7845 223.214 59.7845ZM226.543 59.7222V55.8577H227.509V56.294H227.649C227.706 56.1382 227.8 56.0239 227.93 55.9512C228.065 55.8785 228.22 55.8421 228.397 55.8421H228.865V56.7148H228.381C228.132 56.7148 227.927 56.7823 227.766 56.9173C227.605 57.0472 227.524 57.2498 227.524 57.525V59.7222H226.543ZM229.632 59.7222V55.8577H230.598V56.294H230.738C230.795 56.1382 230.889 56.0239 231.019 55.9512C231.154 55.8785 231.31 55.8421 231.486 55.8421H231.954V56.7148H231.471C231.221 56.7148 231.016 56.7823 230.855 56.9173C230.694 57.0472 230.614 57.2498 230.614 57.525V59.7222H229.632ZM234.345 59.8312C233.96 59.8312 233.62 59.7507 233.324 59.5897C233.033 59.4235 232.805 59.1924 232.639 58.8963C232.477 58.595 232.397 58.2418 232.397 57.8367V57.7432C232.397 57.3381 232.477 56.9875 232.639 56.6914C232.8 56.3901 233.025 56.159 233.316 55.998C233.607 55.8318 233.945 55.7486 234.329 55.7486C234.708 55.7486 235.038 55.8343 235.319 56.0058C235.599 56.172 235.817 56.4057 235.973 56.707C236.129 57.003 236.207 57.3484 236.207 57.7432V58.0782H233.394C233.405 58.3431 233.503 58.5587 233.69 58.7249C233.877 58.8911 234.106 58.9742 234.376 58.9742C234.651 58.9742 234.854 58.9145 234.984 58.795C235.114 58.6755 235.212 58.5431 235.28 58.3977L236.082 58.8184C236.01 58.9534 235.903 59.1015 235.763 59.2625C235.628 59.4183 235.446 59.5534 235.217 59.6676C234.989 59.7767 234.698 59.8312 234.345 59.8312ZM233.402 57.3458H235.21C235.189 57.1225 235.098 56.9433 234.937 56.8083C234.781 56.6732 234.576 56.6057 234.321 56.6057C234.057 56.6057 233.846 56.6732 233.69 56.8083C233.535 56.9433 233.438 57.1225 233.402 57.3458ZM237.081 59.7222V55.8577H238.047V56.3642H238.187C238.249 56.2291 238.366 56.1018 238.538 55.9824C238.709 55.8577 238.969 55.7954 239.317 55.7954C239.618 55.7954 239.88 55.8655 240.104 56.0058C240.332 56.1408 240.509 56.3304 240.633 56.5745C240.758 56.8134 240.82 57.0939 240.82 57.416V59.7222H239.839V57.4939C239.839 57.203 239.766 56.9849 239.621 56.8394C239.48 56.694 239.278 56.6213 239.013 56.6213C238.712 56.6213 238.478 56.7225 238.312 56.9251C238.145 57.1225 238.062 57.4004 238.062 57.7588V59.7222H237.081ZM243.697 59.8312C243.323 59.8312 242.983 59.7533 242.676 59.5975C242.375 59.4417 242.136 59.2157 241.96 58.9197C241.783 58.6236 241.695 58.2652 241.695 57.8445V57.7354C241.695 57.3147 241.783 56.9563 241.96 56.6602C242.136 56.3642 242.375 56.1382 242.676 55.9824C242.983 55.8266 243.323 55.7486 243.697 55.7486C244.066 55.7486 244.383 55.8136 244.648 55.9434C244.912 56.0733 245.125 56.2525 245.286 56.481C245.453 56.7044 245.562 56.9589 245.614 57.2446L244.663 57.4471C244.642 57.2913 244.596 57.1511 244.523 57.0264C244.45 56.9017 244.346 56.8031 244.211 56.7303C244.081 56.6576 243.918 56.6213 243.72 56.6213C243.523 56.6213 243.344 56.6654 243.183 56.7537C243.027 56.8368 242.902 56.9641 242.809 57.1355C242.721 57.3017 242.676 57.5069 242.676 57.751V57.8289C242.676 58.073 242.721 58.2808 242.809 58.4522C242.902 58.6184 243.027 58.7457 243.183 58.834C243.344 58.9171 243.523 58.9586 243.72 58.9586C244.016 58.9586 244.24 58.8833 244.39 58.7327C244.546 58.5769 244.645 58.3743 244.687 58.125L245.637 58.3509C245.57 58.6262 245.453 58.8781 245.286 59.1067C245.125 59.33 244.912 59.5066 244.648 59.6365C244.383 59.7663 244.066 59.8312 243.697 59.8312ZM246.868 61.2804V60.4234H248.971C249.117 60.4234 249.189 60.3455 249.189 60.1896V59.2157H249.049C249.008 59.304 248.943 59.3923 248.854 59.4806C248.766 59.5689 248.647 59.6417 248.496 59.6988C248.345 59.7559 248.153 59.7845 247.919 59.7845C247.618 59.7845 247.353 59.717 247.125 59.5819C246.901 59.4417 246.727 59.2495 246.603 59.0054C246.478 58.7613 246.416 58.4808 246.416 58.1639V55.8577H247.397V58.086C247.397 58.3769 247.468 58.595 247.608 58.7405C247.753 58.8859 247.958 58.9586 248.223 58.9586C248.525 58.9586 248.758 58.8599 248.924 58.6626C249.091 58.46 249.174 58.1795 249.174 57.8211V55.8577H250.155V60.4078C250.155 60.6727 250.078 60.8831 249.922 61.0389C249.766 61.1999 249.558 61.2804 249.298 61.2804H246.868Z" fill="white"/>
<path d="M103 19L100.403 17.5006L100.403 20.4994L103 19ZM100.663 18.7403L88 18.7403L88 19.2597L100.663 19.2597L100.663 18.7403Z" fill="white"/>
<path d="M65 19H51" stroke="white" stroke-width="0.519414"/>
<path d="M68.4075 22.1091C67.9868 22.1091 67.6154 22.0338 67.2933 21.8831C66.9713 21.7325 66.7194 21.5169 66.5376 21.2365C66.3558 20.956 66.2649 20.6184 66.2649 20.2236V20.0054H67.2778V20.2236C67.2778 20.5508 67.379 20.7976 67.5816 20.9638C67.7842 21.1248 68.0595 21.2053 68.4075 21.2053C68.7607 21.2053 69.023 21.1352 69.1944 20.9949C69.371 20.8547 69.4593 20.6755 69.4593 20.4573C69.4593 20.3067 69.4152 20.1846 69.3269 20.0912C69.2437 19.9977 69.1191 19.9223 68.9529 19.8652C68.7919 19.8029 68.5945 19.7457 68.3607 19.6938L68.1815 19.6548C67.8076 19.5717 67.4855 19.4679 67.2154 19.3432C66.9505 19.2133 66.7454 19.0445 66.5999 18.8368C66.4597 18.629 66.3896 18.3589 66.3896 18.0265C66.3896 17.6941 66.4675 17.411 66.6233 17.1772C66.7843 16.9383 67.0077 16.7565 67.2933 16.6319C67.5842 16.502 67.9244 16.4371 68.314 16.4371C68.7036 16.4371 69.049 16.5046 69.3502 16.6396C69.6567 16.7695 69.8956 16.9669 70.067 17.2318C70.2436 17.4915 70.3319 17.8187 70.3319 18.2135V18.4472H69.3191V18.2135C69.3191 18.0057 69.2775 17.8395 69.1944 17.7148C69.1165 17.585 69.0022 17.4915 68.8516 17.4343C68.701 17.372 68.5218 17.3409 68.314 17.3409C68.0023 17.3409 67.7712 17.4006 67.6206 17.52C67.4751 17.6343 67.4024 17.7927 67.4024 17.9953C67.4024 18.1304 67.4362 18.2446 67.5037 18.3381C67.5764 18.4316 67.6829 18.5095 67.8231 18.5719C67.9634 18.6342 68.1426 18.6887 68.3607 18.7355L68.5399 18.7744C68.9295 18.8575 69.2671 18.964 69.5528 19.0939C69.8437 19.2237 70.0696 19.3951 70.2306 19.6081C70.3916 19.8211 70.4722 20.0937 70.4722 20.4262C70.4722 20.7586 70.3865 21.0521 70.215 21.3066C70.0488 21.5559 69.8099 21.7533 69.4983 21.8987C69.1918 22.039 68.8282 22.1091 68.4075 22.1091ZM71.582 22L71.0366 18.1356H72.0105L72.3533 21.3377H72.4936L72.9922 18.1356H74.566L75.0647 21.3377H75.2049L75.5477 18.1356H76.5216L75.9762 22H74.3479L73.8492 18.7978H73.709L73.2103 22H71.582ZM78.5799 22.1091C78.3046 22.1091 78.0579 22.0623 77.8397 21.9688C77.6216 21.8701 77.4476 21.7299 77.3177 21.5481C77.1931 21.3611 77.1307 21.1352 77.1307 20.8703C77.1307 20.6054 77.1931 20.3846 77.3177 20.208C77.4476 20.0262 77.6242 19.8912 77.8475 19.8029C78.0761 19.7094 78.3358 19.6626 78.6266 19.6626H79.6862V19.4445C79.6862 19.2627 79.6291 19.1147 79.5148 19.0004C79.4006 18.8809 79.2188 18.8212 78.9695 18.8212C78.7253 18.8212 78.5435 18.8783 78.4241 18.9926C78.3046 19.1017 78.2267 19.2445 78.1903 19.4211L77.2866 19.1172C77.3489 18.9199 77.4476 18.7407 77.5826 18.5797C77.7229 18.4134 77.9073 18.281 78.1358 18.1823C78.3695 18.0784 78.6526 18.0265 78.985 18.0265C79.4941 18.0265 79.8966 18.1537 80.1927 18.4082C80.4887 18.6628 80.6368 19.0315 80.6368 19.5146V20.956C80.6368 21.1118 80.7095 21.1897 80.8549 21.1897H81.1666V22H80.5121C80.3199 22 80.1615 21.9533 80.0369 21.8598C79.9122 21.7663 79.8499 21.6416 79.8499 21.4858V21.478H79.7018C79.6811 21.5403 79.6343 21.6234 79.5616 21.7273C79.4889 21.826 79.3746 21.9143 79.2188 21.9922C79.0629 22.0701 78.85 22.1091 78.5799 22.1091ZM78.7513 21.3144C79.0266 21.3144 79.2499 21.2391 79.4213 21.0884C79.5979 20.9326 79.6862 20.7274 79.6862 20.4729V20.395H78.6968C78.515 20.395 78.3721 20.434 78.2682 20.5119C78.1644 20.5898 78.1124 20.6989 78.1124 20.8391C78.1124 20.9794 78.167 21.0936 78.276 21.1819C78.3851 21.2702 78.5435 21.3144 78.7513 21.3144ZM81.8843 23.5582V18.1356H82.8505V18.603H82.9907C83.079 18.4524 83.2166 18.3199 83.4036 18.2057C83.5906 18.0862 83.8581 18.0265 84.2061 18.0265C84.5178 18.0265 84.8061 18.1044 85.071 18.2602C85.3359 18.4108 85.5488 18.6342 85.7098 18.9303C85.8709 19.2263 85.9514 19.5847 85.9514 20.0054V20.1301C85.9514 20.5508 85.8709 20.9092 85.7098 21.2053C85.5488 21.5014 85.3359 21.7273 85.071 21.8831C84.8061 22.0338 84.5178 22.1091 84.2061 22.1091C83.9724 22.1091 83.775 22.0805 83.614 22.0234C83.4582 21.9714 83.3309 21.9039 83.2322 21.8208C83.1387 21.7325 83.0634 21.6442 83.0063 21.5559H82.866V23.5582H81.8843ZM83.9101 21.252C84.2165 21.252 84.4684 21.156 84.6658 20.9638C84.8684 20.7664 84.9697 20.4807 84.9697 20.1067V20.0288C84.9697 19.6548 84.8684 19.3718 84.6658 19.1796C84.4632 18.9822 84.2113 18.8835 83.9101 18.8835C83.6088 18.8835 83.3569 18.9822 83.1543 19.1796C82.9517 19.3718 82.8505 19.6548 82.8505 20.0288V20.1067C82.8505 20.4807 82.9517 20.7664 83.1543 20.9638C83.3569 21.156 83.6088 21.252 83.9101 21.252Z" fill="white"/>
<path d="M207.938 19.0806L205.347 17.5701L205.334 20.5689L207.938 19.0806ZM205.601 18.8109L189.001 18.7404L188.999 19.2599L205.599 19.3303L205.601 18.8109Z" fill="white"/>
<path d="M147.816 18.8136C147.715 18.915 147.715 19.0795 147.816 19.1809L149.469 20.8339C149.57 20.9354 149.735 20.9354 149.836 20.834C149.938 20.7326 149.938 20.5682 149.836 20.4667L148.367 18.9974L149.837 17.5285C149.938 17.4271 149.938 17.2626 149.837 17.1612C149.735 17.0597 149.571 17.0597 149.469 17.1611L147.816 18.8136ZM165 18.7403L148 18.7376L148 19.257L165 19.2597L165 18.7403Z" fill="white"/>
<path d="M169.407 22.1091C168.987 22.1091 168.615 22.0338 168.293 21.8831C167.971 21.7325 167.719 21.5169 167.538 21.2365C167.356 20.956 167.265 20.6184 167.265 20.2236V20.0054H168.278V20.2236C168.278 20.5508 168.379 20.7976 168.582 20.9638C168.784 21.1248 169.059 21.2053 169.407 21.2053C169.761 21.2053 170.023 21.1352 170.194 20.9949C170.371 20.8547 170.459 20.6755 170.459 20.4573C170.459 20.3067 170.415 20.1846 170.327 20.0912C170.244 19.9977 170.119 19.9223 169.953 19.8652C169.792 19.8029 169.594 19.7457 169.361 19.6938L169.182 19.6548C168.808 19.5717 168.486 19.4679 168.215 19.3432C167.951 19.2133 167.745 19.0445 167.6 18.8368C167.46 18.629 167.39 18.3589 167.39 18.0265C167.39 17.6941 167.467 17.411 167.623 17.1772C167.784 16.9383 168.008 16.7565 168.293 16.6319C168.584 16.502 168.924 16.4371 169.314 16.4371C169.704 16.4371 170.049 16.5046 170.35 16.6396C170.657 16.7695 170.896 16.9669 171.067 17.2318C171.244 17.4915 171.332 17.8187 171.332 18.2135V18.4472H170.319V18.2135C170.319 18.0057 170.278 17.8395 170.194 17.7148C170.116 17.585 170.002 17.4915 169.852 17.4343C169.701 17.372 169.522 17.3409 169.314 17.3409C169.002 17.3409 168.771 17.4006 168.621 17.52C168.475 17.6343 168.402 17.7927 168.402 17.9953C168.402 18.1304 168.436 18.2446 168.504 18.3381C168.576 18.4316 168.683 18.5095 168.823 18.5719C168.963 18.6342 169.143 18.6887 169.361 18.7355L169.54 18.7744C169.929 18.8575 170.267 18.964 170.553 19.0939C170.844 19.2237 171.07 19.3951 171.231 19.6081C171.392 19.8211 171.472 20.0937 171.472 20.4262C171.472 20.7586 171.386 21.0521 171.215 21.3066C171.049 21.5559 170.81 21.7533 170.498 21.8987C170.192 22.039 169.828 22.1091 169.407 22.1091ZM172.582 22L172.037 18.1356H173.01L173.353 21.3377H173.494L173.992 18.1356H175.566L176.065 21.3377H176.205L176.548 18.1356H177.522L176.976 22H175.348L174.849 18.7978H174.709L174.21 22H172.582ZM179.58 22.1091C179.305 22.1091 179.058 22.0623 178.84 21.9688C178.622 21.8701 178.448 21.7299 178.318 21.5481C178.193 21.3611 178.131 21.1352 178.131 20.8703C178.131 20.6054 178.193 20.3846 178.318 20.208C178.448 20.0262 178.624 19.8912 178.848 19.8029C179.076 19.7094 179.336 19.6626 179.627 19.6626H180.686V19.4445C180.686 19.2627 180.629 19.1147 180.515 19.0004C180.401 18.8809 180.219 18.8212 179.969 18.8212C179.725 18.8212 179.544 18.8783 179.424 18.9926C179.305 19.1017 179.227 19.2445 179.19 19.4211L178.287 19.1172C178.349 18.9199 178.448 18.7407 178.583 18.5797C178.723 18.4134 178.907 18.281 179.136 18.1823C179.37 18.0784 179.653 18.0265 179.985 18.0265C180.494 18.0265 180.897 18.1537 181.193 18.4082C181.489 18.6628 181.637 19.0315 181.637 19.5146V20.956C181.637 21.1118 181.709 21.1897 181.855 21.1897H182.167V22H181.512C181.32 22 181.162 21.9533 181.037 21.8598C180.912 21.7663 180.85 21.6416 180.85 21.4858V21.478H180.702C180.681 21.5403 180.634 21.6234 180.562 21.7273C180.489 21.826 180.375 21.9143 180.219 21.9922C180.063 22.0701 179.85 22.1091 179.58 22.1091ZM179.751 21.3144C180.027 21.3144 180.25 21.2391 180.421 21.0884C180.598 20.9326 180.686 20.7274 180.686 20.4729V20.395H179.697C179.515 20.395 179.372 20.434 179.268 20.5119C179.164 20.5898 179.112 20.6989 179.112 20.8391C179.112 20.9794 179.167 21.0936 179.276 21.1819C179.385 21.2702 179.544 21.3144 179.751 21.3144ZM182.884 23.5582V18.1356H183.85V18.603H183.991C184.079 18.4524 184.217 18.3199 184.404 18.2057C184.591 18.0862 184.858 18.0265 185.206 18.0265C185.518 18.0265 185.806 18.1044 186.071 18.2602C186.336 18.4108 186.549 18.6342 186.71 18.9303C186.871 19.2263 186.951 19.5847 186.951 20.0054V20.1301C186.951 20.5508 186.871 20.9092 186.71 21.2053C186.549 21.5014 186.336 21.7273 186.071 21.8831C185.806 22.0338 185.518 22.1091 185.206 22.1091C184.972 22.1091 184.775 22.0805 184.614 22.0234C184.458 21.9714 184.331 21.9039 184.232 21.8208C184.139 21.7325 184.063 21.6442 184.006 21.5559H183.866V23.5582H182.884ZM184.91 21.252C185.217 21.252 185.468 21.156 185.666 20.9638C185.868 20.7664 185.97 20.4807 185.97 20.1067V20.0288C185.97 19.6548 185.868 19.3718 185.666 19.1796C185.463 18.9822 185.211 18.8835 184.91 18.8835C184.609 18.8835 184.357 18.9822 184.154 19.1796C183.952 19.3718 183.85 19.6548 183.85 20.0288V20.1067C183.85 20.4807 183.952 20.7664 184.154 20.9638C184.357 21.156 184.609 21.252 184.91 21.252Z" fill="white"/>
<defs>
<filter id="filter0_d_69_46" x="218.569" y="11.9077" width="29.0872" height="24.4128" filterUnits="userSpaceOnUse" color-interpolation-filters="sRGB">
<feFlood flood-opacity="0" result="BackgroundImageFix"/>
<feColorMatrix in="SourceAlpha" type="matrix" values="0 0 0 0 0 0 0 0 0 0 0 0 0 0 0 0 0 0 127 0" result="hardAlpha"/>
<feOffset dy="1.29854"/>
<feComposite in2="hardAlpha" operator="out"/>
<feColorMatrix type="matrix" values="0 0 0 0 0.219608 0 0 0 0 0.215686 0 0 0 0 0.364706 0 0 0 1 0"/>
<feBlend mode="normal" in2="BackgroundImageFix" result="effect1_dropShadow_69_46"/>
<feBlend mode="normal" in="SourceGraphic" in2="effect1_dropShadow_69_46" result="shape"/>
</filter>
<filter id="filter1_d_69_46" x="219.868" y="7.49268" width="29.0872" height="24.4128" filterUnits="userSpaceOnUse" color-interpolation-filters="sRGB">
<feFlood flood-opacity="0" result="BackgroundImageFix"/>
<feColorMatrix in="SourceAlpha" type="matrix" values="0 0 0 0 0 0 0 0 0 0 0 0 0 0 0 0 0 0 127 0" result="hardAlpha"/>
<feOffset dy="1.29854"/>
<feComposite in2="hardAlpha" operator="out"/>
<feColorMatrix type="matrix" values="0 0 0 0 0.219608 0 0 0 0 0.215686 0 0 0 0 0.364706 0 0 0 1 0"/>
<feBlend mode="normal" in2="BackgroundImageFix" result="effect1_dropShadow_69_46"/>
<feBlend mode="normal" in="SourceGraphic" in2="effect1_dropShadow_69_46" result="shape"/>
</filter>
<filter id="filter2_d_69_46" x="221.686" y="3.3374" width="29.0872" height="24.4128" filterUnits="userSpaceOnUse" color-interpolation-filters="sRGB">
<feFlood flood-opacity="0" result="BackgroundImageFix"/>
<feColorMatrix in="SourceAlpha" type="matrix" values="0 0 0 0 0 0 0 0 0 0 0 0 0 0 0 0 0 0 127 0" result="hardAlpha"/>
<feOffset dy="1.29854"/>
<feComposite in2="hardAlpha" operator="out"/>
<feColorMatrix type="matrix" values="0 0 0 0 0.219608 0 0 0 0 0.215686 0 0 0 0 0.364706 0 0 0 1 0"/>
<feBlend mode="normal" in2="BackgroundImageFix" result="effect1_dropShadow_69_46"/>
<feBlend mode="normal" in="SourceGraphic" in2="effect1_dropShadow_69_46" result="shape"/>
</filter>
<filter id="filter3_d_69_46" x="218.569" y="0.220703" width="29.0872" height="24.4128" filterUnits="userSpaceOnUse" color-interpolation-filters="sRGB">
<feFlood flood-opacity="0" result="BackgroundImageFix"/>
<feColorMatrix in="SourceAlpha" type="matrix" values="0 0 0 0 0 0 0 0 0 0 0 0 0 0 0 0 0 0 127 0" result="hardAlpha"/>
<feOffset dy="1.29854"/>
<feComposite in2="hardAlpha" operator="out"/>
<feColorMatrix type="matrix" values="0 0 0 0 0.219608 0 0 0 0 0.215686 0 0 0 0 0.364706 0 0 0 1 0"/>
<feBlend mode="normal" in2="BackgroundImageFix" result="effect1_dropShadow_69_46"/>
<feBlend mode="normal" in="SourceGraphic" in2="effect1_dropShadow_69_46" result="shape"/>
</filter>
<filter id="filter4_d_69_46" x="8.03821" y="12.9082" width="29.0873" height="24.4128" filterUnits="userSpaceOnUse" color-interpolation-filters="sRGB">
<feFlood flood-opacity="0" result="BackgroundImageFix"/>
<feColorMatrix in="SourceAlpha" type="matrix" values="0 0 0 0 0 0 0 0 0 0 0 0 0 0 0 0 0 0 127 0" result="hardAlpha"/>
<feOffset dy="1.29854"/>
<feComposite in2="hardAlpha" operator="out"/>
<feColorMatrix type="matrix" values="0 0 0 0 0.219608 0 0 0 0 0.215686 0 0 0 0 0.364706 0 0 0 1 0"/>
<feBlend mode="normal" in2="BackgroundImageFix" result="effect1_dropShadow_69_46"/>
<feBlend mode="normal" in="SourceGraphic" in2="effect1_dropShadow_69_46" result="shape"/>
</filter>
<filter id="filter5_d_69_46" x="9.33728" y="8.49268" width="29.0873" height="24.4128" filterUnits="userSpaceOnUse" color-interpolation-filters="sRGB">
<feFlood flood-opacity="0" result="BackgroundImageFix"/>
<feColorMatrix in="SourceAlpha" type="matrix" values="0 0 0 0 0 0 0 0 0 0 0 0 0 0 0 0 0 0 127 0" result="hardAlpha"/>
<feOffset dy="1.29854"/>
<feComposite in2="hardAlpha" operator="out"/>
<feColorMatrix type="matrix" values="0 0 0 0 0.219608 0 0 0 0 0.215686 0 0 0 0 0.364706 0 0 0 1 0"/>
<feBlend mode="normal" in2="BackgroundImageFix" result="effect1_dropShadow_69_46"/>
<feBlend mode="normal" in="SourceGraphic" in2="effect1_dropShadow_69_46" result="shape"/>
</filter>
<filter id="filter6_d_69_46" x="11.1548" y="4.3374" width="29.0873" height="24.4128" filterUnits="userSpaceOnUse" color-interpolation-filters="sRGB">
<feFlood flood-opacity="0" result="BackgroundImageFix"/>
<feColorMatrix in="SourceAlpha" type="matrix" values="0 0 0 0 0 0 0 0 0 0 0 0 0 0 0 0 0 0 127 0" result="hardAlpha"/>
<feOffset dy="1.29854"/>
<feComposite in2="hardAlpha" operator="out"/>
<feColorMatrix type="matrix" values="0 0 0 0 0.219608 0 0 0 0 0.215686 0 0 0 0 0.364706 0 0 0 1 0"/>
<feBlend mode="normal" in2="BackgroundImageFix" result="effect1_dropShadow_69_46"/>
<feBlend mode="normal" in="SourceGraphic" in2="effect1_dropShadow_69_46" result="shape"/>
</filter>
<filter id="filter7_d_69_46" x="8.03796" y="1.2207" width="29.0873" height="24.4128" filterUnits="userSpaceOnUse" color-interpolation-filters="sRGB">
<feFlood flood-opacity="0" result="BackgroundImageFix"/>
<feColorMatrix in="SourceAlpha" type="matrix" values="0 0 0 0 0 0 0 0 0 0 0 0 0 0 0 0 0 0 127 0" result="hardAlpha"/>
<feOffset dy="1.29854"/>
<feComposite in2="hardAlpha" operator="out"/>
<feColorMatrix type="matrix" values="0 0 0 0 0.219608 0 0 0 0 0.215686 0 0 0 0 0.364706 0 0 0 1 0"/>
<feBlend mode="normal" in2="BackgroundImageFix" result="effect1_dropShadow_69_46"/>
<feBlend mode="normal" in="SourceGraphic" in2="effect1_dropShadow_69_46" result="shape"/>
</filter>
<filter id="filter8_d_69_46" x="109.192" y="2" width="30.4604" height="34.6469" filterUnits="userSpaceOnUse" color-interpolation-filters="sRGB">
<feFlood flood-opacity="0" result="BackgroundImageFix"/>
<feColorMatrix in="SourceAlpha" type="matrix" values="0 0 0 0 0 0 0 0 0 0 0 0 0 0 0 0 0 0 127 0" result="hardAlpha"/>
<feOffset dy="0.755249"/>
<feComposite in2="hardAlpha" operator="out"/>
<feColorMatrix type="matrix" values="0 0 0 0 0.133333 0 0 0 0 0.137255 0 0 0 0 0.247059 0 0 0 1 0"/>
<feBlend mode="normal" in2="BackgroundImageFix" result="effect1_dropShadow_69_46"/>
<feBlend mode="normal" in="SourceGraphic" in2="effect1_dropShadow_69_46" result="shape"/>
</filter>
<linearGradient id="paint0_linear_69_46" x1="233.113" y1="12.687" x2="233.113" y2="34.2427" gradientUnits="userSpaceOnUse">
<stop stop-color="#58568B"/>
<stop offset="1" stop-color="#797899"/>
</linearGradient>
<linearGradient id="paint1_linear_69_46" x1="234.411" y1="8.27197" x2="234.411" y2="29.8277" gradientUnits="userSpaceOnUse">
<stop stop-color="#58568B"/>
<stop offset="1" stop-color="#797899"/>
</linearGradient>
<linearGradient id="paint2_linear_69_46" x1="236.229" y1="4.1167" x2="236.229" y2="25.6724" gradientUnits="userSpaceOnUse">
<stop stop-color="#58568B"/>
<stop offset="1" stop-color="#797899"/>
</linearGradient>
<linearGradient id="paint3_linear_69_46" x1="233.113" y1="1" x2="233.113" y2="22.5557" gradientUnits="userSpaceOnUse">
<stop stop-color="#58568B"/>
<stop offset="1" stop-color="#797899"/>
</linearGradient>
<linearGradient id="paint4_linear_69_46" x1="22.5819" y1="13.6875" x2="22.5819" y2="35.2432" gradientUnits="userSpaceOnUse">
<stop stop-color="#58568B"/>
<stop offset="1" stop-color="#797899"/>
</linearGradient>
<linearGradient id="paint5_linear_69_46" x1="23.8809" y1="9.27197" x2="23.8809" y2="30.8277" gradientUnits="userSpaceOnUse">
<stop stop-color="#58568B"/>
<stop offset="1" stop-color="#797899"/>
</linearGradient>
<linearGradient id="paint6_linear_69_46" x1="25.6984" y1="5.1167" x2="25.6984" y2="26.6724" gradientUnits="userSpaceOnUse">
<stop stop-color="#58568B"/>
<stop offset="1" stop-color="#797899"/>
</linearGradient>
<linearGradient id="paint7_linear_69_46" x1="22.5816" y1="2" x2="22.5816" y2="23.5557" gradientUnits="userSpaceOnUse">
<stop stop-color="#58568B"/>
<stop offset="1" stop-color="#797899"/>
</linearGradient>
<linearGradient id="paint8_linear_69_46" x1="44.5" y1="-5.86865" x2="44.5" y2="35.4248" gradientUnits="userSpaceOnUse">
<stop stop-color="#990B1C" stop-opacity="0"/>
<stop offset="1" stop-color="#FF122E"/>
</linearGradient>
<linearGradient id="paint9_linear_69_46" x1="124.423" y1="2" x2="124.423" y2="35.8918" gradientUnits="userSpaceOnUse">
<stop stop-color="#58568B"/>
<stop offset="1" stop-color="#797899"/>
</linearGradient>
<linearGradient id="paint10_linear_69_46" x1="124.423" y1="2" x2="124.423" y2="35.8918" gradientUnits="userSpaceOnUse">
<stop stop-color="#58568B"/>
<stop offset="1" stop-color="#797899"/>
</linearGradient>
</defs>
</svg>
