<svg width="42" height="43" viewBox="0 0 42 43" fill="none" xmlns="http://www.w3.org/2000/svg">
<g clip-path="url(#clip0_69_99)">
<path d="M39.7419 19.6368H26.133C25.7357 18.5831 25.0268 17.6754 24.1006 17.0348C23.1744 16.3942 22.0751 16.0511 20.9489 16.0511C19.8228 16.0511 18.7234 16.3942 17.7973 17.0348C16.8711 17.6754 16.1622 18.5831 15.7649 19.6368H8.85277C9.24302 17.1961 10.3451 14.9249 12.0209 13.1079C13.6966 11.291 15.8714 10.0092 18.2727 9.42324C20.6739 8.83726 23.1947 8.9732 25.519 9.81399C27.8433 10.6548 29.8677 12.163 31.3384 14.1496C31.6754 14.6044 32.1793 14.9067 32.7391 14.9899C33.299 15.0732 33.8691 14.9306 34.3238 14.5936C34.7786 14.2566 35.0809 13.7527 35.1641 13.1928C35.2474 12.6329 35.1048 12.0629 34.7678 11.6081C33.4012 9.76889 31.6748 8.2268 29.6936 7.07557C27.7124 5.92434 25.5178 5.18801 23.2432 4.91135V2.49743C23.2432 1.9309 23.0182 1.38758 22.6176 0.986978C22.217 0.586381 21.6736 0.361328 21.1071 0.361328C20.5406 0.361328 19.9973 0.586381 19.5967 0.986978C19.1961 1.38758 18.971 1.9309 18.971 2.49743V4.94325C15.2849 5.4568 11.8724 7.17594 9.26587 9.83248C6.65934 12.489 5.00536 15.9336 4.56196 19.6288H2.14804C1.5808 19.6288 1.0368 19.8541 0.635706 20.2552C0.234611 20.6563 0.00927734 21.2003 0.00927734 21.7676C0.00927734 22.3348 0.234611 22.8788 0.635706 23.2799C1.0368 23.681 1.5808 23.9063 2.14804 23.9063H15.9058C16.3449 24.878 17.055 25.7025 17.9509 26.2808C18.8469 26.8591 19.8906 27.1666 20.9569 27.1666C22.0233 27.1666 23.067 26.8591 23.9629 26.2808C24.8588 25.7025 25.5689 24.878 26.0081 23.9063H33.6645C32.7208 29.7949 27.6191 34.1655 21.2733 34.1655C19.3491 34.1726 17.4494 33.7346 15.7226 32.8855C13.9959 32.0364 12.489 30.7994 11.3199 29.2712C10.974 28.8227 10.4642 28.5301 9.90257 28.4575C9.34094 28.385 8.77349 28.5385 8.32506 28.8844C7.87663 29.2302 7.58395 29.74 7.51141 30.3016C7.43887 30.8633 7.59241 31.4307 7.93825 31.8792C10.6253 35.3863 14.5923 37.6862 18.971 38.2755V40.7213C18.971 41.2878 19.1961 41.8312 19.5967 42.2318C19.9973 42.6324 20.5406 42.8574 21.1071 42.8574C21.6736 42.8574 22.217 42.6324 22.6176 42.2318C23.0182 41.8312 23.2432 41.2878 23.2432 40.7213V38.3287C31.0486 37.4673 37.0674 31.5655 37.966 23.9116H39.7419C40.308 23.9116 40.851 23.6867 41.2514 23.2864C41.6517 22.886 41.8766 22.343 41.8766 21.7769C41.8766 21.2107 41.6517 20.6677 41.2514 20.2673C40.851 19.867 40.308 19.6421 39.7419 19.6421V19.6368Z" fill="url(#paint0_linear_69_99)"/>
</g>
<defs>
<linearGradient id="paint0_linear_69_99" x1="34.4966" y1="4.27331" x2="8.27322" y2="38.2994" gradientUnits="userSpaceOnUse">
<stop stop-color="#CB6CE6"/>
<stop offset="0.99" stop-color="#0192F4"/>
</linearGradient>
<clipPath id="clip0_69_99">
<rect width="41.8554" height="42.4855" fill="white" transform="translate(0.0209961 0.370605)"/>
</clipPath>
</defs>
</svg>
