<svg xmlns="http://www.w3.org/2000/svg" width="141" height="195" viewBox="0 0 141 195" fill="none">
  <g clip-path="url(#clip0_0_17)">
    <path d="M0 83.5226C0 56.4006 0 29.2786 0 2.15661C0 0.72088 0.705799 0.00201082 2.1174 0C14.122 0 26.1266 0 38.1282 0C40.0948 0 40.1008 0.00603246 40.1008 1.98468C40.1008 17.0508 40.0797 32.1199 40.137 47.186C40.1431 48.6308 39.6665 49.1465 38.3213 49.5055C25.445 52.9349 16.6768 64.659 16.9482 77.9727C17.2076 90.7072 26.0331 101.879 38.4781 105.131C39.7208 105.457 40.1491 105.948 40.134 107.248C40.0646 113.374 40.134 119.503 40.0767 125.629C40.0646 126.881 40.4447 127.255 41.6934 127.246C49.228 127.195 56.7625 127.252 64.2941 127.195C65.7057 127.183 66.2426 127.508 66.4386 129.05C67.998 141.302 77.6469 151.312 89.8265 153.394C91.1928 153.626 91.7056 154.072 91.6966 155.577C91.6242 167.983 91.6573 180.389 91.6543 192.795C91.6543 194.096 90.9867 194.747 89.6516 194.749C77.5987 194.749 65.5428 194.722 53.4899 194.785C51.9396 194.794 51.5324 194.321 51.5444 192.825C51.6078 184.94 51.5414 177.053 51.6048 169.169C51.6168 167.739 51.2368 167.289 49.7618 167.295C33.8904 167.347 18.019 167.329 2.14756 167.326C0.719875 167.326 0.00402165 166.613 0 165.187C0 137.966 0 110.744 0 83.5226Z" fill="#DBDCD5"/>
    <path d="M89.3019 0.0966213V2.25021C89.3019 26.7089 89.3019 51.1645 89.3019 75.6231C89.3019 77.0026 89.9725 77.6923 91.3137 77.6923C107.185 77.6923 123.054 77.6923 138.925 77.6923C140.222 77.6923 140.871 78.3508 140.873 79.6679C140.873 117.335 140.873 155.001 140.873 192.665C140.873 194.71 140.87 194.716 138.801 194.716C126.8 194.716 114.795 194.692 102.793 194.749C101.279 194.755 100.848 194.354 100.854 192.81C100.917 180.256 100.917 167.7 100.854 155.143C100.848 153.716 101.285 153.174 102.64 152.803C115.142 149.376 123.799 137.975 123.783 125.065C123.768 110.367 112.66 98.0338 98.0339 96.4804C84.4668 95.0387 71.9465 103.053 67.6272 116.038C67.1989 117.329 66.6319 117.703 65.3138 117.679C60.5934 117.591 55.8729 117.645 51.1525 117.645H49.3669C49.3669 113.815 49.3398 110.162 49.4182 106.515C49.4242 106.238 50.1481 105.819 50.5885 105.734C57.6103 104.401 63.501 101.113 68.0344 95.5635C82.0478 78.4192 72.4502 52.7269 50.6217 48.9174C49.753 48.7666 49.3247 48.5072 49.3277 47.4998C49.3609 31.9812 49.3519 16.4627 49.3549 0.944183C49.3549 0.699868 49.4031 0.455553 49.4423 0.093605H89.3019V0.0966213Z" fill="#DBDCD5"/>
    <path d="M45.6569 98.9898C33.604 98.9053 23.9822 89.172 24.0455 77.1311C24.1089 65.2411 33.978 55.4625 45.8288 55.547C57.9812 55.6314 67.6301 65.4764 67.5246 77.6801C67.422 89.4283 57.5227 99.0743 45.6569 98.9928V98.9898Z" fill="#DBDCD5"/>
    <path d="M77.7736 124.812C77.8732 124.812 77.9757 124.812 78.0753 124.812C79.327 124.854 80.8894 124.462 81.74 125.068C82.5001 125.611 82.485 127.252 82.8017 128.41C84.3852 134.195 89.8808 138.11 95.8137 137.682C101.834 137.248 106.705 132.663 107.441 126.561C107.598 125.27 108.063 124.996 109.215 125.044C111.169 125.122 113.133 125.159 115.084 125.059C116.523 124.987 116.752 125.626 116.647 126.863C115.848 136.286 109.01 144.155 99.7348 146.275C86.7409 149.246 74.0426 139.739 73.2071 126.453C73.1286 125.222 73.4574 124.679 74.7604 124.797C75.7558 124.887 76.7662 124.815 77.7706 124.815L77.7736 124.812Z" fill="#DBDCD5"/>
  </g>
  <defs>
    <clipPath id="clip0_0_17">
      <rect width="140.876" height="194.782" fill="white"/>
    </clipPath>
  </defs>
</svg>